<?xml version="1.0" standalone="no"?>
<!DOCTYPE svg PUBLIC "-//W3C//DTD SVG 20010904//EN"
 "http://www.w3.org/TR/2001/REC-SVG-20010904/DTD/svg10.dtd">
<svg version="1.0" xmlns="http://www.w3.org/2000/svg"
 width="3840.000000pt" height="2035.000000pt" viewBox="0 0 3840.000000 2035.000000"
 preserveAspectRatio="xMidYMid meet">
<metadata>
Created by potrace 1.15, written by Peter Selinger 2001-2017
</metadata>
<g transform="translate(0.000000,2035.000000) scale(0.100000,-0.100000)"
fill="#000000" stroke="none">
<path d="M7215 20339 c3971 -4 8292 -11 9603 -14 l2382 -7 0 -10149 0 -10149
-762 -1 c-420 -1 -2489 -5 -4598 -8 -2465 -5 1239 -8 10363 -9 l14197 -2 0
10175 0 10175 -19202 -2 c-15852 -1 -17943 -3 -11983 -9z m19100 -7207 c1782
-2635 2440 -3577 2507 -3590 18 -3 71 71 550 768 480 700 1112 1627 1828 2685
376 556 687 1014 692 1020 7 8 382 32 541 34 l47 1 0 -3880 0 -3880 -305 0
-305 0 -2 1486 -3 1485 -365 -533 c-897 -1310 -1379 -1998 -1400 -1998 -22 0
-109 97 -238 268 -216 286 -411 566 -1317 1889 -324 474 -593 862 -596 863 -4
0 -9 -561 -13 -1247 -3 -687 -9 -1465 -12 -1730 l-7 -483 -278 0 -279 0 0
2161 0 2161 -132 192 c-155 224 -323 449 -366 490 l-30 28 -7 -43 c-16 -117
-26 -1047 -32 -2926 l-6 -2063 -252 0 -253 0 -6 253 c-3 138 -8 1454 -11 2922
l-5 2670 -57 115 c-33 66 -143 243 -258 415 l-200 300 -6 -180 c-4 -99 -10
-1601 -14 -3337 l-8 -3158 -284 0 -283 0 0 3880 0 3880 273 0 272 -1 620 -917z"/>
<path d="M31335 12228 c-280 -408 -671 -976 -869 -1262 -544 -791 -879 -1279
-1104 -1615 -203 -302 -204 -304 -198 -347 8 -62 43 -126 165 -305 l107 -156
85 121 c114 162 993 1449 1743 2556 l608 895 -7 260 c-4 143 -10 335 -14 428
l-6 167 -510 -742z"/>
<path d="M31144 10083 c-699 -1017 -1187 -1741 -1298 -1926 -57 -95 -59 -99
-48 -136 26 -86 245 -382 283 -381 8 1 27 20 43 43 16 23 86 123 156 222 193
275 648 939 1145 1670 l448 659 -13 431 c-7 236 -14 431 -15 433 -1 1 -317
-455 -701 -1015z"/>
<path d="M5930 10170 l0 -3880 278 0 279 0 6 563 c4 309 8 1221 8 2027 1 806
5 2060 8 2787 l6 1322 268 -376 267 -375 0 -2974 0 -2974 284 0 284 0 7 1518
c4 834 10 1976 13 2537 l7 1020 79 -115 c44 -63 164 -241 268 -394 l188 -279
0 -2143 0 -2144 259 0 259 0 5 1508 c5 1429 13 1882 36 1905 11 11 74 -70 308
-398 196 -275 388 -552 1312 -1890 255 -368 472 -679 483 -690 19 -20 19 -20
49 15 116 138 430 573 844 1170 618 892 895 1280 922 1288 7 2 13 -20 17 -65
4 -37 9 -692 12 -1455 l6 -1388 284 0 284 0 0 3880 0 3880 -273 0 -272 0 -717
-1057 c-1791 -2642 -2247 -3297 -2394 -3435 l-29 -27 -141 202 c-187 267 -667
969 -1100 1607 -1066 1569 -1818 2676 -1821 2680 -4 4 -430 28 -535 29 l-48 1
0 -3880z m6749 2733 c7 -23 11 -180 11 -402 l0 -363 -662 -972 c-1653 -2425
-1764 -2586 -1789 -2586 -31 0 -81 53 -157 164 -79 118 -95 160 -85 232 20
154 150 364 864 1399 190 275 475 689 634 920 617 899 1091 1576 1135 1623 29
31 37 28 49 -15z m-4 -1845 c5 -13 10 -197 12 -410 l5 -388 -298 -437 c-164
-241 -397 -584 -519 -763 -122 -179 -363 -532 -535 -785 -172 -253 -345 -505
-383 -559 l-70 -100 -48 52 c-101 110 -249 350 -249 404 0 60 2029 3008 2070
3008 4 0 11 -10 15 -22z"/>
</g>
</svg>
